<svg fill="transparent" id="svg5" xmlns="http://www.w3.org/2000/svg" viewBox="0 0 476 612">
  <a href="/assets/images/blacklines/ca5/b1.jpg" target="iframe"><rect class="home-for-sale" x="64" y="40" width="125.5" height="95" alt="B-1"><title>home for sale</title></rect></a>
  <a href="/assets/images/blacklines/ca5/b2.jpg" target="iframe"><rect class="home-for-sale" x="194" y="40" width="44" height="95"alt="B-2"><title>home for sale</title></rect></a>
  <a href="/assets/images/blacklines/ca5/b3.jpg" target="iframe"><rect class="sold" x="244" y="40" width="43.5" height="95"alt="B-3"><title>SOLD</title></rect></a>
  <a href="/assets/images/blacklines/ca5/b4.jpg" target="iframe"><rect class="sold" x="292.5" y="40" width="44" height="95"alt="B-4"><title>SOLD</title></rect></a>
  <a href="/assets/images/blacklines/ca5/b5.jpg" target="iframe"><polygon class="sold" points="342,40 399.4,40 370.7,127.1 361.5,135 342,135 "alt="B-5"><title>SOLD</title></polygon></a>
  <a href="/assets/images/blacklines/ca5/b6.jpg" target="iframe"><polygon class="sold" points="406.5,40 454.6,40 454.6,79 399.2,133 378,123 "alt="B-6"><title>SOLD</title></polygon></a>
  <a href="/assets/images/blacklines/ca5/b7.jpg" target="iframe"><polygon class="sold" points="454.6,87.5 453.3,204.2 394,163 399.4,139.3 "alt="B-7"><title>SOLD</title></polygon></a>
  <a href="/assets/images/blacklines/ca5/b8.jpg" target="iframe"><polygon class="sold" points="364.1,168.8 390.8,168.8 453.3,209.5 453.3,227.5 364.1,226 "alt="B-8"><title>SOLD</title></polygon></a>
  <a href="/assets/images/blacklines/ca5/b9.jpg" target="iframe"><rect class="home-for-sale" x="265.8" y="156.5" width="93.8" height="46.3"alt="B-9"><title>home for sale</title></rect></a>
  <a href="/assets/images/blacklines/ca5/b10.jpg" target="iframe"><rect class="sold" x="265.8" y="206.3" width="45.3" height="89"alt="B-10"><title>SOLD</title></rect></a>
  <a href="/assets/images/blacklines/ca5/b11.jpg" target="iframe"><rect class="sold" x="314.5" y="206.3" width="47" height="89"alt="B-11"><title>SOLD</title></rect></a>
  <a href="/assets/images/blacklines/ca5/b12.jpg" target="iframe"><polygon class="sold" points="365.5,231.8 453.3,231.8 453.3,255.4 396.5,291.3 368.5,287 "alt="B-12"><title>SOLD</title></polygon></a>
  <a href="/assets/images/blacklines/ca5/b13.jpg" target="iframe"><polygon class="sold" points="399.4,297.2 453.3,263.5 452,401.3 395.3,322 "alt="B-13"><title>SOLD</title></polygon></a>
  <a href="/assets/images/blacklines/ca5/b14.jpg" target="iframe"><polygon class="sold" points="364.1,326.5 391.3,326.5 448.3,405.8 364.1,405.8 "alt="B-14"><title>SOLD</title></polygon></a>
  <a href="/assets/images/blacklines/ca5/b15.jpg" target="iframe"><rect class="sold" x="313.7" y="315.8" width="45.8" height="91.4"alt="B-15"><title>SOLD</title></rect></a>
  <a href="/assets/images/blacklines/ca5/b16.jpg" target="iframe"><rect class="sold" x="263.5" y="315.8" width="47.5" height="91.4"alt="B-16"><title>SOLD</title></rect></a>
  <a href="/assets/images/blacklines/ca5/b17.jpg" target="iframe"><rect class="sold" x="263.5" y="410.3" width="47.5" height="92.3"alt="B-17"><title>SOLD</title></rect></a>
  <a href="/assets/images/blacklines/ca5/b18.jpg" target="iframe"><rect class="sold" x="313.7" y="410.3" width="45.8" height="92.3"alt="B-18"><title>SOLD</title></rect></a>
  <a href="/assets/images/blacklines/ca5/b19.jpg" target="iframe"><polygon class="home-for-sale" points="363,410.3 449.8,410.3 385,491.5 363,498 "alt="B-19"><title>home for sale</title></polygon></a>
  <a href="/assets/images/blacklines/ca5/b20.jpg" target="iframe"><polygon class="home-for-sale" points="389.5,494 452.3,415 451.3,533.5 400,516 "alt="B-20"><title>home for sale</title></polygon></a>
  <a href="/assets/images/blacklines/ca5/b21.jpg" target="iframe"><polygon class="home-for-sale" points="398.5,520.4 449.8,539 449.8,594.8 392.5,594.8 379.7,534.5 "alt="B-21"><title>home for sale</title></polygon></a>
  <a href="/assets/images/blacklines/ca5/b22.jpg" target="iframe"><polygon class="home-for-sale" points="322,522.8 359.5,522.8 373.5,533.5 386.8,596 322,594.8 "alt="B-22"><title>home for sale</title></polygon></a>
  <a href="/assets/images/blacklines/ca5/b23.jpg" target="iframe"><polygon class="home-for-sale" points="264.2,522.8 317.3,522.8 317.3,596 281.3,596 251,575.8 264.2,539.8 "alt="B-23"><title>home for sale</title></polygon></a>
  <a href="/assets/images/blacklines/ca5/a1.jpg" target="iframe"><rect class="home-for-sale" x="62.5" y="156.5" width="90.5" height="46.3"alt="A-1"></rect></a>
  <a href="/assets/images/blacklines/ca5/a2.jpg" target="iframe"><rect class="home-for-sale" x="62.5" y="206.3" width="90.5" height="47.3"alt="A-2"><title>home for sale</title></rect></a>
  <a href="/assets/images/blacklines/ca5/a3.jpg" target="iframe"><rect class="home-for-sale" x="62.5" y="256.8" width="90.5" height="47.3"alt="A-3"><title>home for sale</title></rect></a>
  <a href="/assets/images/blacklines/ca5/a4.jpg" target="iframe"><polygon class="home-for-sale" points="62.5,307.8 153,307.8 153,350 62.5,394.3 "alt="A-4">><title>home for sale</title></polygon></a>
  <a href="/assets/images/blacklines/ca5/a5.jpg" target="iframe"><polygon class="home-for-sale" points="62.5,399.3 153,353.8 153,449 62.5,449 "alt="A-5">><title>home for sale</title></polygon></a>
  <a href="/assets/images/blacklines/ca5/a6.jpg" target="iframe"><rect class="home-for-sale" x="62" y="451.6" width="90.3" height="54.6"alt="A-6"><title>home for sale</title></rect></a>
  <a href="/assets/images/blacklines/ca5/a7.jpg" target="iframe"><rect class="home-for-sale" x="62" y="509.8" width="90.3" height="55.3"alt="A-7"><title>home for sale</title></rect></a>
  <a href="/assets/images/blacklines/ca5/a8.jpg" target="iframe"><polygon class="home-for-sale" points="155.3,509.8 244.3,509.8 244.3,535.5 231.8,568.8 216.3,565 155.3,565 "alt="A-8"><title>home for sale</title></polygon></a>
  <a href="/assets/images/blacklines/ca5/a9.jpg" target="iframe"><rect class="home-for-sale" x="156.3" y="452.5" width="88" height="53.8"alt="A-9"><title>home for sale</title></rect></a>
  <a href="/assets/images/blacklines/ca5/a10.jpg" target="iframe"><rect class="home-for-sale" x="156.3" y="394.3" width="88" height="54.8"alt="A-10"><title>home for sale</title></rect></a>
  <a href="/assets/images/blacklines/ca5/a11.jpg" target="iframe"><rect class="home-for-sale" x="156.3" y="317.6" width="88" height="72.4"alt="A-11"><title>home for sale</title></rect></a>
  <a href="/assets/images/blacklines/ca5/a12.jpg" target="iframe"><rect class="home-for-sale" x="156.3" y="256.8" width="88" height="56.5"alt="A-12"><title>home for sale</title></rect></a>
  <a href="/assets/images/blacklines/ca5/a13.jpg" target="iframe"><rect class="home-for-sale" x="156.3" y="206.3" width="89" height="47.3"alt="A-13"><title>home for sale</title></rect></a>
  <a href="/assets/images/blacklines/ca5/a14.jpg" target="iframe"><rect class="sold" x="156.3" y="156.5" width="89" height="46.3"alt="A-14"><title>SOLD</title></rect></a>
</svg>
